<svg xmlns="http://www.w3.org/2000/svg" xml:space="preserve" style="fill-rule:evenodd;clip-rule:evenodd;stroke-linecap:round;stroke-linejoin:round;stroke-miterlimit:1.5" viewBox="0 0 111 147"><path d="M1657.66 1838.05c3.9 6.54 11.88 15.8 12.74 27.75 1.12 15.41-4.47 20.03-10.59 24.62-5.99 4.49.61 13.79 6.73 11.64" style="fill:none;stroke:#fff;stroke-width:12.01px" transform="matrix(.5447 0 0 .49527 -835.065 -799.184)"/><path d="M1657.66 1838.05c3.9 6.54 11.88 15.8 12.74 27.75 1.12 15.41-4.47 20.03-10.59 24.62-5.99 4.49.61 13.79 6.73 11.64" style="fill:none;stroke:#fff;stroke-width:12.01px" transform="matrix(-.5447 0 0 .49527 945.636 -799.563)"/><ellipse cx="73.252" cy="141.728" rx="2.861" ry="4.233" style="fill:#fff" transform="matrix(1.46148 0 0 1.13712 -34.806 -19.77)"/><ellipse cx="73.252" cy="141.728" rx="2.861" ry="4.233" style="fill:#fff" transform="matrix(1.46148 0 0 1.13712 -68.693 -20.186)"/><path d="m1629.97 1690.17 74.85 149.71h-149.7l74.85-149.71Z" style="fill:#fff;stroke:#fff;stroke-width:8px;stroke-miterlimit:2" transform="matrix(.5447 0 0 .49527 -832.886 -792.745)"/><path d="M1602.12 1669.42h66.259v11.566h-66.259z" style="fill:#fff;stroke:#fff;stroke-width:9.88px;stroke-miterlimit:2" transform="matrix(.5093 0 0 .31082 -777.943 -479.378)"/><path d="M1622.9 1592.38h31.561v76.845H1622.9z" style="fill:#fff;stroke:#fff;stroke-width:9.8px;stroke-miterlimit:2" transform="matrix(.34053 0 0 .49527 -503.66 -786.577)"/><ellipse cx="1634.92" cy="1769.39" rx="24.045" ry="12.711" style="stroke:#000;stroke-width:6.55px" transform="matrix(.5391 0 0 .4769 -826.307 -760.991)"/><path d="M1628.72 1764.32c.46 0 2.42 3.27 2.96 5.38.49 1.95.94 5.85.37 9.8-.7 4.8-2.81 7.86-3.27 7.86-.46 0-2.8-4.38-3.59-7.81-.86-3.71.28-9.65 1.04-11.54.43-1.04 2.02-3.69 2.49-3.69Z" style="fill:#fff;stroke:#fff;stroke-width:9.09px" transform="matrix(.32697 0 0 .40267 -477.531 -632.665)"/><path d="m1559.12 1762.48 7.22 14.43h-14.43l7.21-14.43Z" style="stroke:#000;stroke-width:3px" transform="matrix(0 .66087 -.72683 0 1335.59 -925.567)"/><path d="m1559.12 1762.48 7.22 14.43h-14.43l7.21-14.43Z" style="stroke:#000;stroke-width:3px" transform="matrix(0 .66087 .72683 0 -1226.09 -925.567)"/><path d="M1678.11 1782.82c21.64.71 28.76-.8 36.02-8.03" style="fill:#fff;stroke:#fff;stroke-width:12.01px" transform="matrix(.5447 0 0 .49527 -832.886 -791.755)"/><path d="m1714.87 1769.34.18.13c.41-.25.95-.6 1.26-.88 1.02-.92 1.33-1.8 1.63-2.4.33-.66.37-1.47.37-2.27 0-2.79 2.06-5.05 4.59-5.05s4.59 2.26 4.59 5.05c0 2.53-.47 5.05-1.5 7.13-.69 1.37-1.53 3.25-3.85 5.34-1.95 1.76-4.71 3.24-6.71 3.42l-2.27-.25c-.69-.2-1.45-.54-2.18-.97-1.05-.62-2.05-1.42-2.62-1.96l-1.34-1.75c-.68-1.37-3.49-6.21.76-12.93 1.45-2.28 4.31-2.85 6.39-1.26s2.59 4.74 1.15 7.03c-.42.66-.49 1.21-.45 1.62Z" style="fill:#fff" transform="matrix(.5447 0 0 .49527 -832.886 -791.755)"/><path d="M1716.91 1771.36c-.38.08-.68.24-.79.29.26-.13 1.6-.37 2.39-.97 1.32-1 1.75-1.47 2.96-2.68.66-.66 1.32-1.66 1.72-2.45 1.01-2.03 3.34-2.77 5.19-1.66 1.85 1.12 2.53 3.68 1.51 5.72-.75 1.49-2.02 3.37-3.27 4.61-1.54 1.54-2.09 2.11-3.77 3.39-1.2.9-3.77 1.79-3.77 1.79s.15-.06.2-.09l-.56.15c-.44.19-.91.29-1.41.29l-1.02-.14-1.13-.56-.66-.62-.52-.74-.36-.91-.17-1.11.26-1.66.85-1.43.79-.68 1.01-.44.55-.1Zm1.78 8.1-.95.26c.36-.05.68-.14.95-.26Zm1.21-7.01c-.28-.36-1.03-1.11-2.59-1.11 1 0 1.91.42 2.59 1.11Zm-2.99-1.09.2-.03-.2.03Z" style="fill:#fff" transform="matrix(.5447 0 0 .49527 -832.343 -791.261)"/><path d="M1718.34 1771.68c.51.02 2.48.11 3.2.02 1.5-.19 2.93-1.87 3.61-2.54 1.49-1.5 4.32-1.12 6.31.85 1.99 1.96 2.39 4.77.89 6.27-1.29 1.3-4.51 3.96-7.38 4.31-1.42.18-3.87.25-5.74-.08-.75-.13-1.44-.32-2.03-.55l-1.81-.97c-2.27-1.59-3.28-4.42-2.25-6.31.91-1.68 3.13-2.06 5.2-1Z" style="fill:#fff" transform="matrix(.48017 0 -.1313 .46536 -489.228 -737.325)"/><path d="M1678.11 1782.82c21.64.71 28.76-.8 36.02-8.03" style="fill:#fff;stroke:#fff;stroke-width:12.01px" transform="matrix(-.5447 0 0 .49527 943.083 -791.755)"/><path d="m1715.05 1769.47-.18-.13c-.04-.41.03-.96.45-1.62 1.44-2.29.93-5.44-1.15-7.03-2.08-1.59-4.94-1.02-6.39 1.26-4.25 6.72-1.44 11.56-.76 12.93l1.34 1.75c.57.54 1.57 1.34 2.62 1.96.73.43 1.49.77 2.18.97l2.27.25c2-.18 4.76-1.66 6.71-3.42 2.32-2.09 3.16-3.97 3.85-5.34 1.03-2.08 1.5-4.6 1.5-7.13 0-2.79-2.06-5.05-4.59-5.05s-4.59 2.26-4.59 5.05c0 .8-.04 1.61-.37 2.27-.3.6-.61 1.48-1.63 2.4-.31.28-.85.63-1.26.88Z" style="fill:#fff" transform="matrix(-.5447 0 0 .49527 943.083 -791.755)"/><path d="m1716.91 1771.36-.55.1-1.01.44-.79.68-.85 1.43-.26 1.66.17 1.11.36.91.52.74.66.62 1.13.56 1.02.14c.5 0 .97-.1 1.41-.29l.56-.15c-.05.03-.2.09-.2.09s2.57-.89 3.77-1.79c1.68-1.28 2.23-1.85 3.77-3.39 1.25-1.24 2.52-3.12 3.27-4.61 1.02-2.04.34-4.6-1.51-5.72-1.85-1.11-4.18-.37-5.19 1.66-.4.79-1.06 1.79-1.72 2.45-1.21 1.21-1.64 1.68-2.96 2.68-.79.6-2.13.84-2.39.97.11-.05.41-.21.79-.29Zm3.35 1.5c-.7-.93-1.76-1.52-2.95-1.52 1.58 0 2.48.63 2.95 1.52Zm-1.57 6.6c-.27.12-.59.21-.95.26l.95-.26Zm-1.78-8.1.2-.03-.2.03Z" style="fill:#fff" transform="matrix(-.5447 0 0 .49527 942.54 -791.261)"/><path d="M1718.34 1771.68c-2.07-1.06-4.29-.68-5.2 1-1.03 1.89-.02 4.72 2.25 6.31l1.81.97c.59.23 1.28.42 2.03.55 1.87.33 4.32.26 5.74.08 2.87-.35 6.09-3.01 7.38-4.31 1.5-1.5 1.1-4.31-.89-6.27-1.99-1.97-4.82-2.35-6.31-.85-.68.67-2.11 2.35-3.61 2.54-.72.09-2.69 0-3.2-.02Z" style="fill:#fff" transform="matrix(-.48017 0 .1313 .46536 599.425 -737.325)"/></svg>